<svg xmlns="http://www.w3.org/2000/svg" width="1200" height="1200" fill="none">
    <rect width="1200" height="1200" fill="#EAEAEA" rx="3"/>
    <g opacity=".5">
        <g opacity=".5">
            <path fill="#FAFAFA" d="M600.709 736.5c-75.454 0-136.621-61.167-136.621-136.62 0-75.454 61.167-136.621 136.621-136.621 75.453 0 136.62 61.167 136.62 136.621 0 75.453-61.167 136.62-136.62 136.62Z"/>
            <path stroke="#C9C9C9" stroke-width="2.418" d="M600.709 736.5c-75.454 0-136.621-61.167-136.621-136.62 0-75.454 61.167-136.621 136.621-136.621 75.453 0 136.62 61.167 136.62 136.621 0 75.453-61.167 136.62-136.62 136.62Z"/>
        </g>

        <path stroke="url(#a)" stroke-width="2.418" d="M0-1.209h553.581" transform="scale(1 -1) rotate(45 1163.11 91.165)"/>
        <path stroke="url(#b)" stroke-width="2.418" d="M404.846 598.671h391.726"/>
        <path stroke="url(#c)" stroke-width="2.418" d="M599.5 795.742V404.017"/>
        <path stroke="url(#d)" stroke-width="2.418" d="m795.717 796.597-391.441-391.44"/>

        <path fill="#fff" d="M600.709 656.704c-31.384 0-56.825-25.441-56.825-56.824 0-31.384 25.441-56.825 56.825-56.825 31.383 0 56.824 25.441 56.824 56.825 0 31.383-25.441 56.824-56.824 56.824Z"/>
        <path stroke="#C9C9C9" stroke-width="2.418" d="M600.709 656.704c-31.384 0-56.825-25.441-56.825-56.824 0-31.384 25.441-56.825 56.825-56.825 31.383 0 56.824 25.441 56.824 56.825 0 31.383-25.441 56.824-56.824 56.824Z"/>

        <!-- ⭐ ONLY THIS PART IS CHANGED ⭐ -->
        <g clip-path="url(#e)" transform="translate(586 586) scale(1.4)">
            <g stroke="#666" stroke-width="2" stroke-linecap="round" stroke-linejoin="round">
                <!-- Fork -->
                <path d="M2 0v6"/>
                <path d="M4 0v6"/>
                <path d="M6 0v6"/>
                <path d="M2 6h4v6a4 4 0 0 1-4 4"/>
                <!-- Knife -->
                <path d="M12 0v16"/>
                <path d="M12 0c4 4 6 9 2 12"/>
            </g>
        </g>
        <!-- ⭐ END OF REPLACEMENT ⭐ -->

    </g>

    <defs>
        <linearGradient id="a" x1="554.061" x2="-.48" y1=".083" y2=".087" gradientUnits="userSpaceOnUse">
            <stop stop-color="#C9C9C9" stop-opacity="0"/>
            <stop offset=".208" stop-color="#C9C9C9"/>
            <stop offset=".792" stop-color="#C9C9C9"/>
            <stop offset="1" stop-color="#C9C9C9" stop-opacity="0"/>
        </linearGradient>
        <linearGradient id="b" x1="796.912" x2="404.507" y1="599.963" y2="599.965" gradientUnits="userSpaceOnUse">
            <stop stop-color="#C9C9C9" stop-opacity="0"/>
            <stop offset=".208" stop-color="#C9C9C9"/>
            <stop offset=".792" stop-color="#C9C9C9"/>
            <stop offset="1" stop-color="#C9C9C9" stop-opacity="0"/>
        </linearGradient>
        <linearGradient id="c" x1="600.792" x2="600.794" y1="403.677" y2="796.082" gradientUnits="userSpaceOnUse">
            <stop stop-color="#C9C9C9" stop-opacity="0"/>
            <stop offset=".208" stop-color="#C9C9C9"/>
            <stop offset=".792" stop-color="#C9C9C9"/>
            <stop offset="1" stop-color="#C9C9C9" stop-opacity="0"/>
        </linearGradient>
        <linearGradient id="d" x1="404.85" x2="796.972" y1="403.903" y2="796.02" gradientUnits="userSpaceOnUse">
            <stop stop-color="#C9C9C9" stop-opacity="0"/>
            <stop offset=".208" stop-color="#C9C9C9"/>
            <stop offset=".792" stop-color="#C9C9C9"/>
            <stop offset="1" stop-color="#C9C9C9" stop-opacity="0"/>
        </linearGradient>

        <clipPath id="e">
            <path fill="#fff" d="M581.364 580.535h38.689v38.689h-38.689z"/>
        </clipPath>
    </defs>
</svg>
